<svg width="32" height="32" viewBox="0 0 32 32" fill="none" xmlns="http://www.w3.org/2000/svg">
<g id="calendar">
<path id="Vector" d="M25.3333 3.99998H24V1.33331H21.3333V3.99998H10.6667V1.33331H8V3.99998H6.66667C5.95942 3.99998 5.28115 4.28093 4.78105 4.78103C4.28095 5.28112 4 5.9594 4 6.66665V25.3333C4 26.0406 4.28095 26.7188 4.78105 27.2189C5.28115 27.719 5.95942 28 6.66667 28H25.3333C26.8133 28 28 26.8133 28 25.3333V6.66665C28 5.9594 27.719 5.28112 27.219 4.78103C26.7189 4.28093 26.0406 3.99998 25.3333 3.99998ZM25.3333 25.3333H6.66667V12H25.3333V25.3333ZM25.3333 9.33331H6.66667V6.66665H25.3333V9.33331Z" fill="black"/>
</g>
</svg>
