<svg width="30" height="30" viewBox="0 0 30 30" fill="none" xmlns="http://www.w3.org/2000/svg">
<g id="zondicons:camera" clip-path="url(#clip0_127_2820)">
<path id="Vector" d="M0 9C0 7.35 1.35 6 3 6H7.5L10.5 3H19.5L22.5 6H27C27.7956 6 28.5587 6.31607 29.1213 6.87868C29.6839 7.44129 30 8.20435 30 9V24C30 24.7956 29.6839 25.5587 29.1213 26.1213C28.5587 26.6839 27.7956 27 27 27H3C2.20435 27 1.44129 26.6839 0.87868 26.1213C0.316071 25.5587 0 24.7956 0 24V9ZM15 24C16.9891 24 18.8968 23.2098 20.3033 21.8033C21.7098 20.3968 22.5 18.4891 22.5 16.5C22.5 14.5109 21.7098 12.6032 20.3033 11.1967C18.8968 9.79018 16.9891 9 15 9C13.0109 9 11.1032 9.79018 9.6967 11.1967C8.29018 12.6032 7.5 14.5109 7.5 16.5C7.5 18.4891 8.29018 20.3968 9.6967 21.8033C11.1032 23.2098 13.0109 24 15 24ZM15 21C14.4091 21 13.8239 20.8836 13.2779 20.6575C12.732 20.4313 12.2359 20.0998 11.818 19.682C11.4002 19.2641 11.0687 18.768 10.8425 18.2221C10.6164 17.6761 10.5 17.0909 10.5 16.5C10.5 15.9091 10.6164 15.3239 10.8425 14.7779C11.0687 14.232 11.4002 13.7359 11.818 13.318C12.2359 12.9002 12.732 12.5687 13.2779 12.3425C13.8239 12.1164 14.4091 12 15 12C16.1935 12 17.3381 12.4741 18.182 13.318C19.0259 14.1619 19.5 15.3065 19.5 16.5C19.5 17.6935 19.0259 18.8381 18.182 19.682C17.3381 20.5259 16.1935 21 15 21Z" fill="#CC992C"/>
</g>
<defs>
<clipPath id="clip0_127_2820">
<rect width="30" height="30" fill="white"/>
</clipPath>
</defs>
</svg>
