<svg width="16" height="16" viewBox="0 0 16 16" fill="none" xmlns="http://www.w3.org/2000/svg">
<path d="M9.99998 7.33301H8.66665V4.66634C8.66665 4.48953 8.59641 4.31996 8.47139 4.19494C8.34636 4.06991 8.17679 3.99967 7.99998 3.99967C7.82317 3.99967 7.6536 4.06991 7.52858 4.19494C7.40355 4.31996 7.33332 4.48953 7.33332 4.66634V7.99967C7.33332 8.17649 7.40355 8.34606 7.52858 8.47108C7.6536 8.5961 7.82317 8.66634 7.99998 8.66634H9.99998C10.1768 8.66634 10.3464 8.5961 10.4714 8.47108C10.5964 8.34606 10.6666 8.17649 10.6666 7.99967C10.6666 7.82286 10.5964 7.65329 10.4714 7.52827C10.3464 7.40325 10.1768 7.33301 9.99998 7.33301ZM7.99998 1.33301C6.68144 1.33301 5.39251 1.724 4.29618 2.45654C3.19985 3.18909 2.34537 4.23028 1.84079 5.44845C1.3362 6.66663 1.20418 8.00707 1.46141 9.30028C1.71865 10.5935 2.35359 11.7814 3.28594 12.7137C4.21829 13.6461 5.40617 14.281 6.69938 14.5382C7.99259 14.7955 9.33303 14.6635 10.5512 14.1589C11.7694 13.6543 12.8106 12.7998 13.5431 11.7035C14.2757 10.6071 14.6666 9.31822 14.6666 7.99967C14.6666 7.1242 14.4942 6.25729 14.1592 5.44845C13.8241 4.63961 13.3331 3.90469 12.714 3.28563C12.095 2.66657 11.36 2.17551 10.5512 1.84048C9.74237 1.50545 8.87546 1.33301 7.99998 1.33301ZM7.99998 13.333C6.94515 13.333 5.914 13.0202 5.03694 12.4342C4.15988 11.8481 3.47629 11.0152 3.07263 10.0407C2.66896 9.06611 2.56334 7.99376 2.76913 6.95919C2.97492 5.92463 3.48287 4.97432 4.22875 4.22844C4.97463 3.48256 5.92494 2.97461 6.9595 2.76882C7.99407 2.56303 9.06642 2.66865 10.041 3.07232C11.0155 3.47598 11.8485 4.15957 12.4345 5.03663C13.0205 5.9137 13.3333 6.94484 13.3333 7.99967C13.3333 9.41416 12.7714 10.7707 11.7712 11.7709C10.771 12.7711 9.41447 13.333 7.99998 13.333Z" fill="#53DB89"/>
</svg>
