<svg width="16" height="16" viewBox="0 0 16 16" fill="none" xmlns="http://www.w3.org/2000/svg">
<path d="M5.64518 5.5963L5.64368 5.59752L5.64225 5.59891L5.64518 5.5963ZM12.2813 5.47195C12.2349 5.42725 12.1834 5.38813 12.1279 5.35541C12.0494 5.30918 11.9622 5.27956 11.8717 5.26837C11.7813 5.25718 11.6895 5.26466 11.6021 5.29035C11.5146 5.31604 11.4334 5.35939 11.3634 5.41773C11.2933 5.47606 11.236 5.54814 11.195 5.6295C10.9653 6.08196 10.6486 6.48463 10.263 6.8144C10.3219 6.48213 10.3517 6.14534 10.3518 5.80788C10.3531 4.78128 10.0823 3.77269 9.56695 2.88479C9.05164 1.99689 8.31025 1.26141 7.41825 0.753215C7.31999 0.697513 7.20919 0.667688 7.09624 0.666538C6.9833 0.665389 6.87191 0.692952 6.77254 0.746643C6.67316 0.800333 6.58906 0.87839 6.52811 0.973489C6.46717 1.06859 6.43138 1.17761 6.42411 1.29033C6.38681 1.92244 6.22156 2.54041 5.93837 3.10677C5.65519 3.67314 5.25997 4.17612 4.77667 4.58524L4.62302 4.71024C4.11763 5.05029 3.67028 5.4695 3.29815 5.95177C2.7197 6.68051 2.31898 7.534 2.12779 8.44455C1.9366 9.35511 1.96019 10.2977 2.19668 11.1975C2.43318 12.0974 2.87608 12.9298 3.49026 13.6287C4.10445 14.3276 4.87302 14.8737 5.73503 15.2239C5.83624 15.2653 5.94607 15.2811 6.05484 15.27C6.16361 15.2588 6.26797 15.2211 6.35871 15.1601C6.44946 15.0991 6.5238 15.0168 6.57518 14.9202C6.62656 14.8237 6.6534 14.7161 6.65333 14.6067C6.65286 14.536 6.64166 14.4658 6.62013 14.3984C6.47098 13.8377 6.42803 13.2541 6.4935 12.6777C7.12433 13.8675 8.13692 14.8106 9.3685 15.3554C9.51883 15.4227 9.68877 15.4317 9.84539 15.3808C10.8184 15.0667 11.695 14.5091 12.3918 13.7608C13.0886 13.0126 13.5826 12.0986 13.8266 11.1057C14.0707 10.1128 14.0569 9.07394 13.7864 8.0879C13.5159 7.10185 12.9978 6.20135 12.2813 5.47195ZM9.67806 14.026C9.09694 13.7315 8.58431 13.3179 8.1735 12.8123C7.76269 12.3067 7.4629 11.7202 7.29362 11.0911C7.24192 10.8793 7.20193 10.6647 7.17383 10.4485C7.15479 10.3108 7.09319 10.1825 6.99764 10.0815C6.9021 9.98057 6.77739 9.91198 6.64095 9.88536C6.59892 9.87707 6.55618 9.87293 6.51333 9.873C6.39616 9.87295 6.28105 9.90381 6.17961 9.96245C6.07816 10.0211 5.99398 10.1054 5.93553 10.207C5.38238 11.1611 5.1042 12.2497 5.13182 13.3522C4.64531 12.9739 4.23872 12.5029 3.9356 11.9663C3.63249 11.4297 3.43888 10.8384 3.366 10.2264C3.29312 9.61451 3.34242 8.9942 3.51103 8.40146C3.67965 7.80872 3.96424 7.25535 4.34829 6.7734C4.6399 6.39463 4.99169 6.06626 5.38963 5.8014C5.40686 5.79028 5.42338 5.7781 5.43911 5.76494C5.43911 5.76494 5.6369 5.60129 5.64366 5.59754C6.59346 4.79418 7.269 3.71455 7.57615 2.50908C8.30253 3.18057 8.78688 4.0731 8.95399 5.04809C9.1211 6.02307 8.96162 7.02596 8.50031 7.90101C8.43936 8.01778 8.41436 8.14998 8.42846 8.28094C8.44255 8.41189 8.49512 8.53575 8.57952 8.63687C8.66393 8.73798 8.77639 8.81184 8.90272 8.84912C9.02905 8.8864 9.16359 8.88544 9.28937 8.84634C10.3106 8.52623 11.2092 7.90095 11.8642 7.05468C12.2579 7.6362 12.5153 8.29908 12.6172 8.99391C12.7191 9.68875 12.6629 10.3976 12.4528 11.0677C12.2427 11.7378 11.884 12.3518 11.4036 12.864C10.9231 13.3762 10.3333 13.7734 9.67804 14.026L9.67806 14.026Z" fill="#53DB89"/>
</svg>
