<svg width="16" height="16" viewBox="0 0 16 16" fill="none" xmlns="http://www.w3.org/2000/svg">
<path d="M3.99999 7.33301C3.86814 7.33301 3.73924 7.37211 3.62961 7.44536C3.51998 7.51862 3.43453 7.62273 3.38407 7.74455C3.33361 7.86637 3.32041 8.00041 3.34613 8.12973C3.37186 8.25906 3.43535 8.37784 3.52859 8.47108C3.62182 8.56431 3.74061 8.62781 3.86993 8.65353C3.99925 8.67926 4.13329 8.66605 4.25511 8.61559C4.37693 8.56514 4.48105 8.47969 4.5543 8.37006C4.62756 8.26042 4.66666 8.13153 4.66666 7.99967C4.66666 7.82286 4.59642 7.65329 4.47139 7.52827C4.34637 7.40325 4.1768 7.33301 3.99999 7.33301ZM12 7.33301C11.8681 7.33301 11.7392 7.37211 11.6296 7.44536C11.52 7.51862 11.4345 7.62273 11.3841 7.74455C11.3336 7.86637 11.3204 8.00041 11.3461 8.12973C11.3719 8.25906 11.4353 8.37784 11.5286 8.47108C11.6218 8.56431 11.7406 8.62781 11.8699 8.65353C11.9992 8.67926 12.1333 8.66605 12.2551 8.61559C12.3769 8.56514 12.481 8.47969 12.5543 8.37006C12.6276 8.26042 12.6667 8.13153 12.6667 7.99967C12.6667 7.82286 12.5964 7.65329 12.4714 7.52827C12.3464 7.40325 12.1768 7.33301 12 7.33301ZM13.3333 3.33301H2.66666C2.13622 3.33301 1.62752 3.54372 1.25244 3.91879C0.87737 4.29387 0.666656 4.80257 0.666656 5.33301V10.6663C0.666656 11.1968 0.87737 11.7055 1.25244 12.0806C1.62752 12.4556 2.13622 12.6663 2.66666 12.6663H13.3333C13.8638 12.6663 14.3725 12.4556 14.7475 12.0806C15.1226 11.7055 15.3333 11.1968 15.3333 10.6663V5.33301C15.3333 4.80257 15.1226 4.29387 14.7475 3.91879C14.3725 3.54372 13.8638 3.33301 13.3333 3.33301ZM14 10.6663C14 10.8432 13.9298 11.0127 13.8047 11.1377C13.6797 11.2628 13.5101 11.333 13.3333 11.333H2.66666C2.48985 11.333 2.32028 11.2628 2.19525 11.1377C2.07023 11.0127 1.99999 10.8432 1.99999 10.6663V5.33301C1.99999 5.1562 2.07023 4.98663 2.19525 4.8616C2.32028 4.73658 2.48985 4.66634 2.66666 4.66634H13.3333C13.5101 4.66634 13.6797 4.73658 13.8047 4.8616C13.9298 4.98663 14 5.1562 14 5.33301V10.6663ZM7.99999 5.99967C7.60443 5.99967 7.21775 6.11697 6.88885 6.33674C6.55995 6.5565 6.30361 6.86886 6.15223 7.23431C6.00085 7.59976 5.96125 8.00189 6.03842 8.38986C6.11559 8.77782 6.30607 9.13418 6.58578 9.41389C6.86548 9.69359 7.22185 9.88408 7.60981 9.96125C7.99777 10.0384 8.3999 9.99881 8.76536 9.84743C9.13081 9.69606 9.44317 9.43971 9.66293 9.11082C9.88269 8.78192 9.99999 8.39524 9.99999 7.99967C9.99999 7.46924 9.78928 6.96053 9.4142 6.58546C9.03913 6.21039 8.53042 5.99967 7.99999 5.99967ZM7.99999 8.66634C7.86813 8.66634 7.73924 8.62724 7.62961 8.55399C7.51998 8.48073 7.43453 8.37661 7.38407 8.2548C7.33361 8.13298 7.32041 7.99894 7.34613 7.86961C7.37186 7.74029 7.43535 7.62151 7.52858 7.52827C7.62182 7.43504 7.74061 7.37154 7.86993 7.34582C7.99925 7.32009 8.13329 7.3333 8.25511 7.38375C8.37693 7.43421 8.48105 7.51966 8.5543 7.62929C8.62756 7.73893 8.66666 7.86782 8.66666 7.99967C8.66666 8.17649 8.59642 8.34605 8.47139 8.47108C8.34637 8.5961 8.1768 8.66634 7.99999 8.66634Z" fill="#53DB89"/>
</svg>
