<svg width="16" height="16" viewBox="0 0 16 16" fill="none" xmlns="http://www.w3.org/2000/svg">
<path d="M6 6.66634C5.82318 6.66634 5.65361 6.73658 5.52859 6.8616C5.40357 6.98663 5.33333 7.1562 5.33333 7.33301V8.66634C5.33333 8.84315 5.40357 9.01272 5.52859 9.13775C5.65361 9.26277 5.82318 9.33301 6 9.33301C6.17681 9.33301 6.34637 9.26277 6.4714 9.13775C6.59642 9.01272 6.66666 8.84315 6.66666 8.66634V7.33301C6.66666 7.1562 6.59642 6.98663 6.4714 6.8616C6.34637 6.73658 6.17681 6.66634 6 6.66634ZM14 7.33301C14.1768 7.33301 14.3464 7.26277 14.4714 7.13775C14.5964 7.01272 14.6667 6.84315 14.6667 6.66634V3.99967C14.6667 3.82286 14.5964 3.65329 14.4714 3.52827C14.3464 3.40325 14.1768 3.33301 14 3.33301H1.99999C1.82318 3.33301 1.65361 3.40325 1.52859 3.52827C1.40357 3.65329 1.33333 3.82286 1.33333 3.99967V6.66634C1.33333 6.84315 1.40357 7.01272 1.52859 7.13775C1.65361 7.26277 1.82318 7.33301 1.99999 7.33301C2.17681 7.33301 2.34638 7.40325 2.4714 7.52827C2.59642 7.65329 2.66666 7.82286 2.66666 7.99967C2.66666 8.17649 2.59642 8.34605 2.4714 8.47108C2.34638 8.5961 2.17681 8.66634 1.99999 8.66634C1.82318 8.66634 1.65361 8.73658 1.52859 8.8616C1.40357 8.98663 1.33333 9.1562 1.33333 9.33301V11.9997C1.33333 12.1765 1.40357 12.3461 1.52859 12.4711C1.65361 12.5961 1.82318 12.6663 1.99999 12.6663H14C14.1768 12.6663 14.3464 12.5961 14.4714 12.4711C14.5964 12.3461 14.6667 12.1765 14.6667 11.9997V9.33301C14.6667 9.1562 14.5964 8.98663 14.4714 8.8616C14.3464 8.73658 14.1768 8.66634 14 8.66634C13.8232 8.66634 13.6536 8.5961 13.5286 8.47108C13.4036 8.34605 13.3333 8.17649 13.3333 7.99967C13.3333 7.82286 13.4036 7.65329 13.5286 7.52827C13.6536 7.40325 13.8232 7.33301 14 7.33301ZM13.3333 6.11967C12.9472 6.25981 12.6136 6.51543 12.3779 6.85178C12.1421 7.18814 12.0157 7.58893 12.0157 7.99967C12.0157 8.41042 12.1421 8.81121 12.3779 9.14756C12.6136 9.48392 12.9472 9.73954 13.3333 9.87967V11.333H6.66666C6.66666 11.1562 6.59642 10.9866 6.4714 10.8616C6.34637 10.7366 6.17681 10.6663 6 10.6663C5.82318 10.6663 5.65361 10.7366 5.52859 10.8616C5.40357 10.9866 5.33333 11.1562 5.33333 11.333H2.66666V9.87967C3.05276 9.73954 3.38635 9.48392 3.6221 9.14756C3.85785 8.81121 3.98431 8.41042 3.98431 7.99967C3.98431 7.58893 3.85785 7.18814 3.6221 6.85178C3.38635 6.51543 3.05276 6.25981 2.66666 6.11967V4.66634H5.33333C5.33333 4.84315 5.40357 5.01272 5.52859 5.13775C5.65361 5.26277 5.82318 5.33301 6 5.33301C6.17681 5.33301 6.34637 5.26277 6.4714 5.13775C6.59642 5.01272 6.66666 4.84315 6.66666 4.66634H13.3333V6.11967Z" fill="#53DB89"/>
</svg>
