<svg width="18" height="18" viewBox="0 0 18 18" fill="none" xmlns="http://www.w3.org/2000/svg">
<path d="M11.5 4.5V5H12H15C15.0663 5 15.1299 5.02634 15.1768 5.07322C15.2237 5.12011 15.25 5.18369 15.25 5.25C15.25 5.31631 15.2237 5.37989 15.1768 5.42678L15.5303 5.78033L15.1768 5.42678C15.1299 5.47366 15.0663 5.5 15 5.5H14.25H13.75V6V14.25C13.75 14.7141 13.5656 15.1592 13.2374 15.4874C12.9092 15.8156 12.4641 16 12 16H6C5.53587 16 5.09075 15.8156 4.76256 15.4874L4.42315 15.8268L4.76256 15.4874C4.43437 15.1592 4.25 14.7141 4.25 14.25V6V5.5H3.75H3C2.9337 5.5 2.87011 5.47366 2.82322 5.42678L2.46967 5.78033L2.82322 5.42678C2.77634 5.37989 2.75 5.3163 2.75 5.25C2.75 5.1837 2.77634 5.12011 2.82322 5.07322C2.87011 5.02634 2.9337 5 3 5H6H6.5V4.5V3.75C6.5 3.28587 6.68437 2.84075 7.01256 2.51256C7.34075 2.18437 7.78587 2 8.25 2H9.75C10.2141 2 10.6592 2.18437 10.9874 2.51256C11.3156 2.84075 11.5 3.28587 11.5 3.75V4.5ZM10.5 5H11V4.5V3.75C11 3.41848 10.8683 3.10054 10.6339 2.86612C10.3995 2.6317 10.0815 2.5 9.75 2.5H8.25C7.91848 2.5 7.60054 2.6317 7.36612 2.86612C7.1317 3.10054 7 3.41848 7 3.75V4.5V5H7.5H10.5ZM5.25 5.5H4.75V6V14.25C4.75 14.5815 4.8817 14.8995 5.11612 15.1339C5.35054 15.3683 5.66848 15.5 6 15.5H12C12.3315 15.5 12.6495 15.3683 12.8839 15.1339C13.1183 14.8995 13.25 14.5815 13.25 14.25V6V5.5H12.75H5.25ZM7.67678 12.9268C7.62989 12.9737 7.56631 13 7.5 13C7.43369 13 7.37011 12.9737 7.32322 12.9268C7.27634 12.8799 7.25 12.8163 7.25 12.75V8.25C7.25 8.1837 7.27634 8.12011 7.32322 8.07322L6.96967 7.71967L7.32322 8.07322C7.37011 8.02634 7.4337 8 7.5 8C7.5663 8 7.62989 8.02634 7.67678 8.07322L8.03033 7.71967L7.67678 8.07322C7.72366 8.12011 7.75 8.1837 7.75 8.25V12.75C7.75 12.8163 7.72366 12.8799 7.67678 12.9268ZM10.6768 12.9268C10.6299 12.9737 10.5663 13 10.5 13C10.4337 13 10.3701 12.9737 10.3232 12.9268C10.2763 12.8799 10.25 12.8163 10.25 12.75V8.25C10.25 8.1837 10.2763 8.12011 10.3232 8.07322C10.3701 8.02634 10.4337 8 10.5 8C10.5663 8 10.6299 8.02634 10.6768 8.07322L11.0303 7.71967L10.6768 8.07322C10.7237 8.12011 10.75 8.1837 10.75 8.25V12.75C10.75 12.8163 10.7237 12.8799 10.6768 12.9268Z" stroke="#53DB89"/>
</svg>
