<svg width="14" height="14" viewBox="0 0 14 14" fill="none" xmlns="http://www.w3.org/2000/svg">
<path d="M7.175 7.12866C7.48626 6.85924 7.73591 6.52601 7.90701 6.15159C8.07812 5.77717 8.16667 5.37032 8.16667 4.95866C8.16667 4.18511 7.85938 3.44325 7.3124 2.89626C6.76542 2.34928 6.02355 2.04199 5.25 2.04199C4.47645 2.04199 3.73459 2.34928 3.18761 2.89626C2.64063 3.44325 2.33334 4.18511 2.33334 4.95866C2.33333 5.37032 2.42189 5.77717 2.59299 6.15159C2.7641 6.52601 3.01375 6.85924 3.325 7.12866C2.50842 7.49842 1.81561 8.09555 1.32941 8.84864C0.843208 9.60174 0.584194 10.4789 0.583336 11.3753C0.583336 11.53 0.644794 11.6784 0.75419 11.7878C0.863586 11.8972 1.01196 11.9587 1.16667 11.9587C1.32138 11.9587 1.46975 11.8972 1.57915 11.7878C1.68854 11.6784 1.75 11.53 1.75 11.3753C1.75 10.4471 2.11875 9.55683 2.77513 8.90045C3.43151 8.24407 4.32174 7.87533 5.25 7.87533C6.17826 7.87533 7.0685 8.24407 7.72488 8.90045C8.38125 9.55683 8.75 10.4471 8.75 11.3753C8.75 11.53 8.81146 11.6784 8.92086 11.7878C9.03025 11.8972 9.17863 11.9587 9.33334 11.9587C9.48804 11.9587 9.63642 11.8972 9.74582 11.7878C9.85521 11.6784 9.91667 11.53 9.91667 11.3753C9.91581 10.4789 9.6568 9.60174 9.1706 8.84864C8.6844 8.09555 7.99159 7.49842 7.175 7.12866ZM5.25 6.70866C4.90388 6.70866 4.56554 6.60602 4.27775 6.41373C3.98997 6.22144 3.76567 5.94813 3.63321 5.62835C3.50076 5.30858 3.4661 4.95672 3.53363 4.61725C3.60115 4.27778 3.76782 3.96596 4.01257 3.72122C4.25731 3.47648 4.56913 3.30981 4.90859 3.24228C5.24806 3.17476 5.59993 3.20942 5.9197 3.34187C6.23947 3.47432 6.51278 3.69862 6.70507 3.98641C6.89737 4.2742 7 4.61254 7 4.95866C7 5.42279 6.81563 5.86791 6.48744 6.1961C6.15925 6.52428 5.71413 6.70866 5.25 6.70866ZM10.9317 6.89533C11.305 6.47493 11.5488 5.95561 11.6339 5.39986C11.7189 4.84411 11.6415 4.27562 11.411 3.76283C11.1805 3.25003 10.8067 2.81479 10.3346 2.50949C9.8625 2.20419 9.31222 2.04184 8.75 2.04199C8.59529 2.04199 8.44692 2.10345 8.33752 2.21285C8.22813 2.32224 8.16667 2.47062 8.16667 2.62533C8.16667 2.78004 8.22813 2.92841 8.33752 3.0378C8.44692 3.1472 8.59529 3.20866 8.75 3.20866C9.21413 3.20866 9.65925 3.39303 9.98744 3.72122C10.3156 4.04941 10.5 4.49453 10.5 4.95866C10.4992 5.26505 10.4179 5.56585 10.2644 5.83099C10.1108 6.09612 9.89035 6.3163 9.625 6.46949C9.53852 6.51938 9.46628 6.59063 9.41521 6.67642C9.36415 6.76222 9.33595 6.85968 9.33334 6.95949C9.3309 7.05852 9.35371 7.15654 9.39964 7.24431C9.44556 7.33208 9.51309 7.40671 9.59584 7.46116L9.82334 7.61283L9.89917 7.65366C10.6023 7.98716 11.1955 8.51465 11.6089 9.17401C12.0223 9.83336 12.2387 10.5971 12.2325 11.3753C12.2325 11.53 12.294 11.6784 12.4034 11.7878C12.5128 11.8972 12.6611 11.9587 12.8158 11.9587C12.9705 11.9587 13.1189 11.8972 13.2283 11.7878C13.3377 11.6784 13.3992 11.53 13.3992 11.3753C13.4039 10.4802 13.1797 9.59864 12.7479 8.81453C12.316 8.03042 11.6908 7.36976 10.9317 6.89533Z" fill="#475A6B"/>
</svg>
